M48
; DRILL file {KiCad (5.1.9)-1} date 02/27/22 18:21:25
; FORMAT={-:-/ absolute / inch / decimal}
; #@! TF.CreationDate,2022-02-27T18:21:25-05:00
; #@! TF.GenerationSoftware,Kicad,Pcbnew,(5.1.9)-1
; #@! TF.FileFunction,Plated,1,2,PTH
FMAT,2
INCH
T1C0.0118
T2C0.0157
T3C0.0236
T4C0.0315
T5C0.0394
T6C0.0433
T7C0.1260
T8C0.1772
T9C0.3307
%
G90
G05
T1
X2.65Y-3.09
X2.65Y-3.13
X2.65Y-3.17
X2.65Y-3.21
X2.69Y-3.09
X2.69Y-3.13
X2.69Y-3.17
X2.69Y-3.21
X2.73Y-3.09
X2.73Y-3.13
X2.73Y-3.17
X2.73Y-3.21
X2.77Y-3.09
X2.77Y-3.13
X2.77Y-3.17
X2.77Y-3.21
X2.86Y-2.69
X2.86Y-2.77
X2.86Y-2.85
X2.86Y-2.93
X2.86Y-3.01
X2.94Y-2.69
X2.94Y-2.77
X2.94Y-2.85
X2.94Y-2.93
X2.94Y-3.01
X3.02Y-2.69
X3.02Y-2.77
X3.02Y-2.85
X3.02Y-2.93
X3.02Y-3.01
X3.1Y-2.69
X3.1Y-2.77
X3.1Y-2.85
X3.1Y-2.93
X3.1Y-3.01
X3.18Y-2.69
X3.18Y-2.77
X3.18Y-2.85
X3.18Y-2.93
X3.18Y-3.01
X3.26Y-2.69
X3.26Y-2.77
X3.26Y-2.85
X3.26Y-2.93
X3.26Y-3.01
X3.79Y-3.6
X3.79Y-3.64
X3.79Y-3.68
X3.79Y-3.72
X3.83Y-3.6
X3.83Y-3.64
X3.83Y-3.68
X3.83Y-3.72
X3.87Y-3.6
X3.87Y-3.64
X3.87Y-3.68
X3.87Y-3.72
X4.44Y-2.87
X4.44Y-2.91
X4.44Y-2.95
X4.44Y-2.99
X4.48Y-2.87
X4.48Y-2.91
X4.48Y-2.95
X4.48Y-2.99
X4.52Y-2.87
X4.52Y-2.91
X4.52Y-2.95
X4.52Y-2.99
X4.56Y-2.87
X4.56Y-2.91
X4.56Y-2.95
X4.56Y-2.99
X4.69Y-3.12
X4.69Y-3.2
X4.69Y-3.28
X4.69Y-3.36
X4.69Y-3.44
X4.77Y-3.12
X4.77Y-3.2
X4.77Y-3.28
X4.77Y-3.36
X4.77Y-3.44
X4.85Y-3.12
X4.85Y-3.2
X4.85Y-3.28
X4.85Y-3.36
X4.85Y-3.44
X4.93Y-3.12
X4.93Y-3.2
X4.93Y-3.28
X4.93Y-3.36
X4.93Y-3.44
X5.01Y-3.12
X5.01Y-3.2
X5.01Y-3.28
X5.01Y-3.36
X5.01Y-3.44
X5.09Y-3.12
X5.09Y-3.2
X5.09Y-3.28
X5.09Y-3.36
X5.09Y-3.44
T2
X2.295Y-2.555
X2.315Y-5.305
X2.73Y-3.95
X2.89Y-3.83
X2.89Y-3.95
X2.97Y-3.45
X3.02Y-3.83
X3.07Y-3.45
X3.1Y-4.09
X3.1552Y-3.7052
X3.16Y-3.37
X3.21Y-2.38
X3.25Y-3.49
X3.29Y-3.27
X3.3Y-3.5604
X3.3Y-4.44
X3.36Y-3.65
X3.37Y-2.23
X3.385Y-4.745
X3.4847Y-3.9047
X3.4847Y-4.0447
X3.49Y-3.65
X3.52Y-3.47
X3.53Y-2.23
X3.64Y-3.36
X3.64Y-3.49
X3.69Y-2.23
X3.7652Y-3.9452
X3.78Y-3.36
X3.78Y-4.2
X3.79Y-3.53
X3.84Y-3.79
X3.84Y-3.94
X3.85Y-2.23
X3.85Y-4.05
X3.86Y-4.755
X3.8645Y-4.6067
X3.91Y-3.87
X3.96Y-4.2
X3.975Y-4.095
X3.98Y-4.88
X4.01Y-2.23
X4.01Y-3.3
X4.01Y-3.46
X4.0688Y-4.1538
X4.09Y-3.79
X4.09Y-4.85
X4.13Y-3.99
X4.16Y-4.23
X4.17Y-2.23
X4.18Y-3.3
X4.18Y-3.51
X4.18Y-3.65
X4.22Y-4.285
X4.28Y-4.1
X4.29Y-3.85
X4.3Y-4.205
X4.32Y-4.86
X4.33Y-2.23
X4.34Y-5.31
X4.35Y-3.3
X4.35Y-3.51
X4.43Y-4.25
X4.49Y-2.23
X4.6375Y-4.6725
X4.65Y-2.23
X4.65Y-2.39
X4.72Y-4.68
X4.74Y-4.57
X4.81Y-2.23
X4.81Y-2.39
X4.81Y-2.55
X4.97Y-2.39
X4.97Y-2.55
X5.03Y-4.79
X5.09Y-4.525
X5.115Y-4.74
X5.125Y-4.38
X5.13Y-2.71
X5.13Y-2.87
X5.155Y-2.56
X5.18Y-4.58
X5.29Y-2.55
X5.29Y-2.71
X5.29Y-2.87
X5.29Y-3.03
X5.29Y-3.19
X5.29Y-3.35
X5.29Y-3.51
X5.29Y-3.67
T3
X2.89Y-3.42
X2.89Y-3.52
X2.89Y-3.62
X2.89Y-3.72
X3.02Y-3.67
X3.13Y-3.6
X4.4Y-3.14
X4.46Y-3.14
X4.47Y-3.61
X4.47Y-3.85
X4.52Y-3.14
X4.55Y-4.0
X4.62Y-3.61
X4.62Y-3.85
T4
X2.48Y-4.36
X2.48Y-4.46
X2.48Y-4.56
X2.48Y-4.66
X2.78Y-4.36
X2.78Y-4.46
X2.78Y-4.56
X2.78Y-4.66
T5
X2.24Y-4.07
X2.4369Y-4.07
X2.7231Y-4.07
X2.92Y-4.07
X3.17Y-4.27
X3.17Y-4.37
X3.17Y-4.47
X3.17Y-4.57
X3.17Y-4.67
X3.17Y-4.77
X3.17Y-4.87
X3.58Y-4.885
X3.68Y-4.885
X3.78Y-4.885
X4.5531Y-4.19
X4.75Y-4.19
X5.03Y-3.75
X5.03Y-4.19
X5.2269Y-3.75
X5.2269Y-4.19
T6
X2.33Y-4.36
X2.33Y-4.66
T7
X2.295Y-2.25
X2.315Y-5.615
X4.345Y-5.62
X5.155Y-2.25
T8
X2.7065Y-2.41
X2.99Y-2.41
T9
X3.3763Y-5.43
X4.91Y-5.43
T0
M30
