%TF.GenerationSoftware,KiCad,Pcbnew,(5.1.9)-1*%
%TF.CreationDate,2022-02-27T18:21:23-05:00*%
%TF.ProjectId,LabPSU,4c616250-5355-42e6-9b69-6361645f7063,rev?*%
%TF.SameCoordinates,Original*%
%TF.FileFunction,Soldermask,Top*%
%TF.FilePolarity,Negative*%
%FSLAX46Y46*%
G04 Gerber Fmt 4.6, Leading zero omitted, Abs format (unit mm)*
G04 Created by KiCad (PCBNEW (5.1.9)-1) date 2022-02-27 18:21:23*
%MOMM*%
%LPD*%
G01*
G04 APERTURE LIST*
%ADD10O,1.700000X1.700000*%
%ADD11R,1.700000X1.700000*%
%ADD12O,1.600000X1.600000*%
%ADD13R,1.600000X1.600000*%
%ADD14R,2.900000X5.400000*%
%ADD15O,2.200000X2.200000*%
%ADD16R,2.200000X2.200000*%
%ADD17C,2.000000*%
%ADD18R,2.000000X2.000000*%
%ADD19R,3.000000X4.200000*%
%ADD20R,1.780000X0.420000*%
%ADD21R,2.500000X2.500000*%
%ADD22R,3.910000X3.810000*%
%ADD23R,0.610000X1.020000*%
%ADD24R,0.610000X1.270000*%
%ADD25R,6.350000X18.800000*%
%ADD26C,16.800000*%
%ADD27C,6.000000*%
%ADD28C,6.400000*%
%ADD29R,10.800000X9.400000*%
%ADD30R,1.100000X4.600000*%
%ADD31C,0.254000*%
%ADD32C,0.100000*%
G04 APERTURE END LIST*
%TO.C,U6*%
G36*
G01*
X128166000Y-114251000D02*
X127866000Y-114251000D01*
G75*
G02*
X127716000Y-114101000I0J150000D01*
G01*
X127716000Y-112651000D01*
G75*
G02*
X127866000Y-112501000I150000J0D01*
G01*
X128166000Y-112501000D01*
G75*
G02*
X128316000Y-112651000I0J-150000D01*
G01*
X128316000Y-114101000D01*
G75*
G02*
X128166000Y-114251000I-150000J0D01*
G01*
G37*
G36*
G01*
X129436000Y-114251000D02*
X129136000Y-114251000D01*
G75*
G02*
X128986000Y-114101000I0J150000D01*
G01*
X128986000Y-112651000D01*
G75*
G02*
X129136000Y-112501000I150000J0D01*
G01*
X129436000Y-112501000D01*
G75*
G02*
X129586000Y-112651000I0J-150000D01*
G01*
X129586000Y-114101000D01*
G75*
G02*
X129436000Y-114251000I-150000J0D01*
G01*
G37*
G36*
G01*
X130706000Y-114251000D02*
X130406000Y-114251000D01*
G75*
G02*
X130256000Y-114101000I0J150000D01*
G01*
X130256000Y-112651000D01*
G75*
G02*
X130406000Y-112501000I150000J0D01*
G01*
X130706000Y-112501000D01*
G75*
G02*
X130856000Y-112651000I0J-150000D01*
G01*
X130856000Y-114101000D01*
G75*
G02*
X130706000Y-114251000I-150000J0D01*
G01*
G37*
G36*
G01*
X131976000Y-114251000D02*
X131676000Y-114251000D01*
G75*
G02*
X131526000Y-114101000I0J150000D01*
G01*
X131526000Y-112651000D01*
G75*
G02*
X131676000Y-112501000I150000J0D01*
G01*
X131976000Y-112501000D01*
G75*
G02*
X132126000Y-112651000I0J-150000D01*
G01*
X132126000Y-114101000D01*
G75*
G02*
X131976000Y-114251000I-150000J0D01*
G01*
G37*
G36*
G01*
X131976000Y-119401000D02*
X131676000Y-119401000D01*
G75*
G02*
X131526000Y-119251000I0J150000D01*
G01*
X131526000Y-117801000D01*
G75*
G02*
X131676000Y-117651000I150000J0D01*
G01*
X131976000Y-117651000D01*
G75*
G02*
X132126000Y-117801000I0J-150000D01*
G01*
X132126000Y-119251000D01*
G75*
G02*
X131976000Y-119401000I-150000J0D01*
G01*
G37*
G36*
G01*
X130706000Y-119401000D02*
X130406000Y-119401000D01*
G75*
G02*
X130256000Y-119251000I0J150000D01*
G01*
X130256000Y-117801000D01*
G75*
G02*
X130406000Y-117651000I150000J0D01*
G01*
X130706000Y-117651000D01*
G75*
G02*
X130856000Y-117801000I0J-150000D01*
G01*
X130856000Y-119251000D01*
G75*
G02*
X130706000Y-119401000I-150000J0D01*
G01*
G37*
G36*
G01*
X129436000Y-119401000D02*
X129136000Y-119401000D01*
G75*
G02*
X128986000Y-119251000I0J150000D01*
G01*
X128986000Y-117801000D01*
G75*
G02*
X129136000Y-117651000I150000J0D01*
G01*
X129436000Y-117651000D01*
G75*
G02*
X129586000Y-117801000I0J-150000D01*
G01*
X129586000Y-119251000D01*
G75*
G02*
X129436000Y-119401000I-150000J0D01*
G01*
G37*
G36*
G01*
X128166000Y-119401000D02*
X127866000Y-119401000D01*
G75*
G02*
X127716000Y-119251000I0J150000D01*
G01*
X127716000Y-117801000D01*
G75*
G02*
X127866000Y-117651000I150000J0D01*
G01*
X128166000Y-117651000D01*
G75*
G02*
X128316000Y-117801000I0J-150000D01*
G01*
X128316000Y-119251000D01*
G75*
G02*
X128166000Y-119401000I-150000J0D01*
G01*
G37*
%TD*%
%TO.C,U5*%
G36*
G01*
X104027000Y-111656000D02*
X104027000Y-111356000D01*
G75*
G02*
X104177000Y-111206000I150000J0D01*
G01*
X105627000Y-111206000D01*
G75*
G02*
X105777000Y-111356000I0J-150000D01*
G01*
X105777000Y-111656000D01*
G75*
G02*
X105627000Y-111806000I-150000J0D01*
G01*
X104177000Y-111806000D01*
G75*
G02*
X104027000Y-111656000I0J150000D01*
G01*
G37*
G36*
G01*
X104027000Y-112926000D02*
X104027000Y-112626000D01*
G75*
G02*
X104177000Y-112476000I150000J0D01*
G01*
X105627000Y-112476000D01*
G75*
G02*
X105777000Y-112626000I0J-150000D01*
G01*
X105777000Y-112926000D01*
G75*
G02*
X105627000Y-113076000I-150000J0D01*
G01*
X104177000Y-113076000D01*
G75*
G02*
X104027000Y-112926000I0J150000D01*
G01*
G37*
G36*
G01*
X104027000Y-114196000D02*
X104027000Y-113896000D01*
G75*
G02*
X104177000Y-113746000I150000J0D01*
G01*
X105627000Y-113746000D01*
G75*
G02*
X105777000Y-113896000I0J-150000D01*
G01*
X105777000Y-114196000D01*
G75*
G02*
X105627000Y-114346000I-150000J0D01*
G01*
X104177000Y-114346000D01*
G75*
G02*
X104027000Y-114196000I0J150000D01*
G01*
G37*
G36*
G01*
X104027000Y-115466000D02*
X104027000Y-115166000D01*
G75*
G02*
X104177000Y-115016000I150000J0D01*
G01*
X105627000Y-115016000D01*
G75*
G02*
X105777000Y-115166000I0J-150000D01*
G01*
X105777000Y-115466000D01*
G75*
G02*
X105627000Y-115616000I-150000J0D01*
G01*
X104177000Y-115616000D01*
G75*
G02*
X104027000Y-115466000I0J150000D01*
G01*
G37*
G36*
G01*
X98877000Y-115466000D02*
X98877000Y-115166000D01*
G75*
G02*
X99027000Y-115016000I150000J0D01*
G01*
X100477000Y-115016000D01*
G75*
G02*
X100627000Y-115166000I0J-150000D01*
G01*
X100627000Y-115466000D01*
G75*
G02*
X100477000Y-115616000I-150000J0D01*
G01*
X99027000Y-115616000D01*
G75*
G02*
X98877000Y-115466000I0J150000D01*
G01*
G37*
G36*
G01*
X98877000Y-114196000D02*
X98877000Y-113896000D01*
G75*
G02*
X99027000Y-113746000I150000J0D01*
G01*
X100477000Y-113746000D01*
G75*
G02*
X100627000Y-113896000I0J-150000D01*
G01*
X100627000Y-114196000D01*
G75*
G02*
X100477000Y-114346000I-150000J0D01*
G01*
X99027000Y-114346000D01*
G75*
G02*
X98877000Y-114196000I0J150000D01*
G01*
G37*
G36*
G01*
X98877000Y-112926000D02*
X98877000Y-112626000D01*
G75*
G02*
X99027000Y-112476000I150000J0D01*
G01*
X100477000Y-112476000D01*
G75*
G02*
X100627000Y-112626000I0J-150000D01*
G01*
X100627000Y-112926000D01*
G75*
G02*
X100477000Y-113076000I-150000J0D01*
G01*
X99027000Y-113076000D01*
G75*
G02*
X98877000Y-112926000I0J150000D01*
G01*
G37*
G36*
G01*
X98877000Y-111656000D02*
X98877000Y-111356000D01*
G75*
G02*
X99027000Y-111206000I150000J0D01*
G01*
X100477000Y-111206000D01*
G75*
G02*
X100627000Y-111356000I0J-150000D01*
G01*
X100627000Y-111656000D01*
G75*
G02*
X100477000Y-111806000I-150000J0D01*
G01*
X99027000Y-111806000D01*
G75*
G02*
X98877000Y-111656000I0J150000D01*
G01*
G37*
%TD*%
D10*
%TO.C,J2*%
X80518000Y-123698000D03*
X80518000Y-121158000D03*
X80518000Y-118618000D03*
X80518000Y-116078000D03*
X80518000Y-113538000D03*
X80518000Y-110998000D03*
D11*
X80518000Y-108458000D03*
%TD*%
%TO.C,C7*%
G36*
G01*
X71258000Y-87518001D02*
X71258000Y-86217999D01*
G75*
G02*
X71507999Y-85968000I249999J0D01*
G01*
X72158001Y-85968000D01*
G75*
G02*
X72408000Y-86217999I0J-249999D01*
G01*
X72408000Y-87518001D01*
G75*
G02*
X72158001Y-87768000I-249999J0D01*
G01*
X71507999Y-87768000D01*
G75*
G02*
X71258000Y-87518001I0J249999D01*
G01*
G37*
G36*
G01*
X68308000Y-87518001D02*
X68308000Y-86217999D01*
G75*
G02*
X68557999Y-85968000I249999J0D01*
G01*
X69208001Y-85968000D01*
G75*
G02*
X69458000Y-86217999I0J-249999D01*
G01*
X69458000Y-87518001D01*
G75*
G02*
X69208001Y-87768000I-249999J0D01*
G01*
X68557999Y-87768000D01*
G75*
G02*
X68308000Y-87518001I0J249999D01*
G01*
G37*
%TD*%
%TO.C,C5*%
G36*
G01*
X71258000Y-90058001D02*
X71258000Y-88757999D01*
G75*
G02*
X71507999Y-88508000I249999J0D01*
G01*
X72158001Y-88508000D01*
G75*
G02*
X72408000Y-88757999I0J-249999D01*
G01*
X72408000Y-90058001D01*
G75*
G02*
X72158001Y-90308000I-249999J0D01*
G01*
X71507999Y-90308000D01*
G75*
G02*
X71258000Y-90058001I0J249999D01*
G01*
G37*
G36*
G01*
X68308000Y-90058001D02*
X68308000Y-88757999D01*
G75*
G02*
X68557999Y-88508000I249999J0D01*
G01*
X69208001Y-88508000D01*
G75*
G02*
X69458000Y-88757999I0J-249999D01*
G01*
X69458000Y-90058001D01*
G75*
G02*
X69208001Y-90308000I-249999J0D01*
G01*
X68557999Y-90308000D01*
G75*
G02*
X68308000Y-90058001I0J249999D01*
G01*
G37*
%TD*%
%TO.C,C3*%
G36*
G01*
X71258000Y-92598001D02*
X71258000Y-91297999D01*
G75*
G02*
X71507999Y-91048000I249999J0D01*
G01*
X72158001Y-91048000D01*
G75*
G02*
X72408000Y-91297999I0J-249999D01*
G01*
X72408000Y-92598001D01*
G75*
G02*
X72158001Y-92848000I-249999J0D01*
G01*
X71507999Y-92848000D01*
G75*
G02*
X71258000Y-92598001I0J249999D01*
G01*
G37*
G36*
G01*
X68308000Y-92598001D02*
X68308000Y-91297999D01*
G75*
G02*
X68557999Y-91048000I249999J0D01*
G01*
X69208001Y-91048000D01*
G75*
G02*
X69458000Y-91297999I0J-249999D01*
G01*
X69458000Y-92598001D01*
G75*
G02*
X69208001Y-92848000I-249999J0D01*
G01*
X68557999Y-92848000D01*
G75*
G02*
X68308000Y-92598001I0J249999D01*
G01*
G37*
%TD*%
%TO.C,C2*%
G36*
G01*
X71258000Y-95138001D02*
X71258000Y-93837999D01*
G75*
G02*
X71507999Y-93588000I249999J0D01*
G01*
X72158001Y-93588000D01*
G75*
G02*
X72408000Y-93837999I0J-249999D01*
G01*
X72408000Y-95138001D01*
G75*
G02*
X72158001Y-95388000I-249999J0D01*
G01*
X71507999Y-95388000D01*
G75*
G02*
X71258000Y-95138001I0J249999D01*
G01*
G37*
G36*
G01*
X68308000Y-95138001D02*
X68308000Y-93837999D01*
G75*
G02*
X68557999Y-93588000I249999J0D01*
G01*
X69208001Y-93588000D01*
G75*
G02*
X69458000Y-93837999I0J-249999D01*
G01*
X69458000Y-95138001D01*
G75*
G02*
X69208001Y-95388000I-249999J0D01*
G01*
X68557999Y-95388000D01*
G75*
G02*
X68308000Y-95138001I0J249999D01*
G01*
G37*
%TD*%
%TO.C,R11*%
G36*
G01*
X89591000Y-98302000D02*
X89591000Y-98802000D01*
G75*
G02*
X89366000Y-99027000I-225000J0D01*
G01*
X88916000Y-99027000D01*
G75*
G02*
X88691000Y-98802000I0J225000D01*
G01*
X88691000Y-98302000D01*
G75*
G02*
X88916000Y-98077000I225000J0D01*
G01*
X89366000Y-98077000D01*
G75*
G02*
X89591000Y-98302000I0J-225000D01*
G01*
G37*
G36*
G01*
X91141000Y-98302000D02*
X91141000Y-98802000D01*
G75*
G02*
X90916000Y-99027000I-225000J0D01*
G01*
X90466000Y-99027000D01*
G75*
G02*
X90241000Y-98802000I0J225000D01*
G01*
X90241000Y-98302000D01*
G75*
G02*
X90466000Y-98077000I225000J0D01*
G01*
X90916000Y-98077000D01*
G75*
G02*
X91141000Y-98302000I0J-225000D01*
G01*
G37*
%TD*%
%TO.C,C15*%
G36*
G01*
X91765000Y-97278000D02*
X91765000Y-96778000D01*
G75*
G02*
X91990000Y-96553000I225000J0D01*
G01*
X92440000Y-96553000D01*
G75*
G02*
X92665000Y-96778000I0J-225000D01*
G01*
X92665000Y-97278000D01*
G75*
G02*
X92440000Y-97503000I-225000J0D01*
G01*
X91990000Y-97503000D01*
G75*
G02*
X91765000Y-97278000I0J225000D01*
G01*
G37*
G36*
G01*
X90215000Y-97278000D02*
X90215000Y-96778000D01*
G75*
G02*
X90440000Y-96553000I225000J0D01*
G01*
X90890000Y-96553000D01*
G75*
G02*
X91115000Y-96778000I0J-225000D01*
G01*
X91115000Y-97278000D01*
G75*
G02*
X90890000Y-97503000I-225000J0D01*
G01*
X90440000Y-97503000D01*
G75*
G02*
X90215000Y-97278000I0J225000D01*
G01*
G37*
%TD*%
%TO.C,C13*%
G36*
G01*
X93289000Y-98802000D02*
X93289000Y-98302000D01*
G75*
G02*
X93514000Y-98077000I225000J0D01*
G01*
X93964000Y-98077000D01*
G75*
G02*
X94189000Y-98302000I0J-225000D01*
G01*
X94189000Y-98802000D01*
G75*
G02*
X93964000Y-99027000I-225000J0D01*
G01*
X93514000Y-99027000D01*
G75*
G02*
X93289000Y-98802000I0J225000D01*
G01*
G37*
G36*
G01*
X91739000Y-98802000D02*
X91739000Y-98302000D01*
G75*
G02*
X91964000Y-98077000I225000J0D01*
G01*
X92414000Y-98077000D01*
G75*
G02*
X92639000Y-98302000I0J-225000D01*
G01*
X92639000Y-98802000D01*
G75*
G02*
X92414000Y-99027000I-225000J0D01*
G01*
X91964000Y-99027000D01*
G75*
G02*
X91739000Y-98802000I0J225000D01*
G01*
G37*
%TD*%
%TO.C,C6*%
G36*
G01*
X90428000Y-93289000D02*
X90928000Y-93289000D01*
G75*
G02*
X91153000Y-93514000I0J-225000D01*
G01*
X91153000Y-93964000D01*
G75*
G02*
X90928000Y-94189000I-225000J0D01*
G01*
X90428000Y-94189000D01*
G75*
G02*
X90203000Y-93964000I0J225000D01*
G01*
X90203000Y-93514000D01*
G75*
G02*
X90428000Y-93289000I225000J0D01*
G01*
G37*
G36*
G01*
X90428000Y-91739000D02*
X90928000Y-91739000D01*
G75*
G02*
X91153000Y-91964000I0J-225000D01*
G01*
X91153000Y-92414000D01*
G75*
G02*
X90928000Y-92639000I-225000J0D01*
G01*
X90428000Y-92639000D01*
G75*
G02*
X90203000Y-92414000I0J225000D01*
G01*
X90203000Y-91964000D01*
G75*
G02*
X90428000Y-91739000I225000J0D01*
G01*
G37*
%TD*%
%TO.C,C4*%
G36*
G01*
X89150000Y-94671000D02*
X88650000Y-94671000D01*
G75*
G02*
X88425000Y-94446000I0J225000D01*
G01*
X88425000Y-93996000D01*
G75*
G02*
X88650000Y-93771000I225000J0D01*
G01*
X89150000Y-93771000D01*
G75*
G02*
X89375000Y-93996000I0J-225000D01*
G01*
X89375000Y-94446000D01*
G75*
G02*
X89150000Y-94671000I-225000J0D01*
G01*
G37*
G36*
G01*
X89150000Y-96221000D02*
X88650000Y-96221000D01*
G75*
G02*
X88425000Y-95996000I0J225000D01*
G01*
X88425000Y-95546000D01*
G75*
G02*
X88650000Y-95321000I225000J0D01*
G01*
X89150000Y-95321000D01*
G75*
G02*
X89375000Y-95546000I0J-225000D01*
G01*
X89375000Y-95996000D01*
G75*
G02*
X89150000Y-96221000I-225000J0D01*
G01*
G37*
%TD*%
D12*
%TO.C,U1*%
X62992000Y-118364000D03*
X70612000Y-110744000D03*
X62992000Y-115824000D03*
X70612000Y-113284000D03*
X62992000Y-113284000D03*
X70612000Y-115824000D03*
X62992000Y-110744000D03*
D13*
X70612000Y-118364000D03*
%TD*%
D14*
%TO.C,L1*%
X71498000Y-128016000D03*
X61598000Y-128016000D03*
%TD*%
D15*
%TO.C,D1*%
X59182000Y-110744000D03*
D16*
X59182000Y-118364000D03*
%TD*%
D17*
%TO.C,C8*%
X69168000Y-103378000D03*
D18*
X74168000Y-103378000D03*
%TD*%
D17*
%TO.C,C1*%
X61896000Y-103378000D03*
D18*
X56896000Y-103378000D03*
%TD*%
%TO.C,R6*%
G36*
G01*
X87258998Y-116724000D02*
X88509002Y-116724000D01*
G75*
G02*
X88759000Y-116973998I0J-249998D01*
G01*
X88759000Y-117599002D01*
G75*
G02*
X88509002Y-117849000I-249998J0D01*
G01*
X87258998Y-117849000D01*
G75*
G02*
X87009000Y-117599002I0J249998D01*
G01*
X87009000Y-116973998D01*
G75*
G02*
X87258998Y-116724000I249998J0D01*
G01*
G37*
G36*
G01*
X87258998Y-113799000D02*
X88509002Y-113799000D01*
G75*
G02*
X88759000Y-114048998I0J-249998D01*
G01*
X88759000Y-114674002D01*
G75*
G02*
X88509002Y-114924000I-249998J0D01*
G01*
X87258998Y-114924000D01*
G75*
G02*
X87009000Y-114674002I0J249998D01*
G01*
X87009000Y-114048998D01*
G75*
G02*
X87258998Y-113799000I249998J0D01*
G01*
G37*
%TD*%
%TO.C,R5*%
G36*
G01*
X84718998Y-115073000D02*
X85969002Y-115073000D01*
G75*
G02*
X86219000Y-115322998I0J-249998D01*
G01*
X86219000Y-115948002D01*
G75*
G02*
X85969002Y-116198000I-249998J0D01*
G01*
X84718998Y-116198000D01*
G75*
G02*
X84469000Y-115948002I0J249998D01*
G01*
X84469000Y-115322998D01*
G75*
G02*
X84718998Y-115073000I249998J0D01*
G01*
G37*
G36*
G01*
X84718998Y-112148000D02*
X85969002Y-112148000D01*
G75*
G02*
X86219000Y-112397998I0J-249998D01*
G01*
X86219000Y-113023002D01*
G75*
G02*
X85969002Y-113273000I-249998J0D01*
G01*
X84718998Y-113273000D01*
G75*
G02*
X84469000Y-113023002I0J249998D01*
G01*
X84469000Y-112397998D01*
G75*
G02*
X84718998Y-112148000I249998J0D01*
G01*
G37*
%TD*%
%TO.C,C20*%
G36*
G01*
X116460000Y-95340000D02*
X116460000Y-100240000D01*
G75*
G02*
X116210000Y-100490000I-250000J0D01*
G01*
X114910000Y-100490000D01*
G75*
G02*
X114660000Y-100240000I0J250000D01*
G01*
X114660000Y-95340000D01*
G75*
G02*
X114910000Y-95090000I250000J0D01*
G01*
X116210000Y-95090000D01*
G75*
G02*
X116460000Y-95340000I0J-250000D01*
G01*
G37*
G36*
G01*
X121560000Y-95340000D02*
X121560000Y-100240000D01*
G75*
G02*
X121310000Y-100490000I-250000J0D01*
G01*
X120010000Y-100490000D01*
G75*
G02*
X119760000Y-100240000I0J250000D01*
G01*
X119760000Y-95340000D01*
G75*
G02*
X120010000Y-95090000I250000J0D01*
G01*
X121310000Y-95090000D01*
G75*
G02*
X121560000Y-95340000I0J-250000D01*
G01*
G37*
%TD*%
%TO.C,C17*%
G36*
G01*
X116460000Y-89244000D02*
X116460000Y-94144000D01*
G75*
G02*
X116210000Y-94394000I-250000J0D01*
G01*
X114910000Y-94394000D01*
G75*
G02*
X114660000Y-94144000I0J250000D01*
G01*
X114660000Y-89244000D01*
G75*
G02*
X114910000Y-88994000I250000J0D01*
G01*
X116210000Y-88994000D01*
G75*
G02*
X116460000Y-89244000I0J-250000D01*
G01*
G37*
G36*
G01*
X121560000Y-89244000D02*
X121560000Y-94144000D01*
G75*
G02*
X121310000Y-94394000I-250000J0D01*
G01*
X120010000Y-94394000D01*
G75*
G02*
X119760000Y-94144000I0J250000D01*
G01*
X119760000Y-89244000D01*
G75*
G02*
X120010000Y-88994000I250000J0D01*
G01*
X121310000Y-88994000D01*
G75*
G02*
X121560000Y-89244000I0J-250000D01*
G01*
G37*
%TD*%
%TO.C,U4*%
G36*
G01*
X95099000Y-111402000D02*
X95099000Y-111102000D01*
G75*
G02*
X95249000Y-110952000I150000J0D01*
G01*
X96899000Y-110952000D01*
G75*
G02*
X97049000Y-111102000I0J-150000D01*
G01*
X97049000Y-111402000D01*
G75*
G02*
X96899000Y-111552000I-150000J0D01*
G01*
X95249000Y-111552000D01*
G75*
G02*
X95099000Y-111402000I0J150000D01*
G01*
G37*
G36*
G01*
X95099000Y-112672000D02*
X95099000Y-112372000D01*
G75*
G02*
X95249000Y-112222000I150000J0D01*
G01*
X96899000Y-112222000D01*
G75*
G02*
X97049000Y-112372000I0J-150000D01*
G01*
X97049000Y-112672000D01*
G75*
G02*
X96899000Y-112822000I-150000J0D01*
G01*
X95249000Y-112822000D01*
G75*
G02*
X95099000Y-112672000I0J150000D01*
G01*
G37*
G36*
G01*
X95099000Y-113942000D02*
X95099000Y-113642000D01*
G75*
G02*
X95249000Y-113492000I150000J0D01*
G01*
X96899000Y-113492000D01*
G75*
G02*
X97049000Y-113642000I0J-150000D01*
G01*
X97049000Y-113942000D01*
G75*
G02*
X96899000Y-114092000I-150000J0D01*
G01*
X95249000Y-114092000D01*
G75*
G02*
X95099000Y-113942000I0J150000D01*
G01*
G37*
G36*
G01*
X95099000Y-115212000D02*
X95099000Y-114912000D01*
G75*
G02*
X95249000Y-114762000I150000J0D01*
G01*
X96899000Y-114762000D01*
G75*
G02*
X97049000Y-114912000I0J-150000D01*
G01*
X97049000Y-115212000D01*
G75*
G02*
X96899000Y-115362000I-150000J0D01*
G01*
X95249000Y-115362000D01*
G75*
G02*
X95099000Y-115212000I0J150000D01*
G01*
G37*
G36*
G01*
X95099000Y-116482000D02*
X95099000Y-116182000D01*
G75*
G02*
X95249000Y-116032000I150000J0D01*
G01*
X96899000Y-116032000D01*
G75*
G02*
X97049000Y-116182000I0J-150000D01*
G01*
X97049000Y-116482000D01*
G75*
G02*
X96899000Y-116632000I-150000J0D01*
G01*
X95249000Y-116632000D01*
G75*
G02*
X95099000Y-116482000I0J150000D01*
G01*
G37*
G36*
G01*
X95099000Y-117752000D02*
X95099000Y-117452000D01*
G75*
G02*
X95249000Y-117302000I150000J0D01*
G01*
X96899000Y-117302000D01*
G75*
G02*
X97049000Y-117452000I0J-150000D01*
G01*
X97049000Y-117752000D01*
G75*
G02*
X96899000Y-117902000I-150000J0D01*
G01*
X95249000Y-117902000D01*
G75*
G02*
X95099000Y-117752000I0J150000D01*
G01*
G37*
G36*
G01*
X95099000Y-119022000D02*
X95099000Y-118722000D01*
G75*
G02*
X95249000Y-118572000I150000J0D01*
G01*
X96899000Y-118572000D01*
G75*
G02*
X97049000Y-118722000I0J-150000D01*
G01*
X97049000Y-119022000D01*
G75*
G02*
X96899000Y-119172000I-150000J0D01*
G01*
X95249000Y-119172000D01*
G75*
G02*
X95099000Y-119022000I0J150000D01*
G01*
G37*
G36*
G01*
X90149000Y-119022000D02*
X90149000Y-118722000D01*
G75*
G02*
X90299000Y-118572000I150000J0D01*
G01*
X91949000Y-118572000D01*
G75*
G02*
X92099000Y-118722000I0J-150000D01*
G01*
X92099000Y-119022000D01*
G75*
G02*
X91949000Y-119172000I-150000J0D01*
G01*
X90299000Y-119172000D01*
G75*
G02*
X90149000Y-119022000I0J150000D01*
G01*
G37*
G36*
G01*
X90149000Y-117752000D02*
X90149000Y-117452000D01*
G75*
G02*
X90299000Y-117302000I150000J0D01*
G01*
X91949000Y-117302000D01*
G75*
G02*
X92099000Y-117452000I0J-150000D01*
G01*
X92099000Y-117752000D01*
G75*
G02*
X91949000Y-117902000I-150000J0D01*
G01*
X90299000Y-117902000D01*
G75*
G02*
X90149000Y-117752000I0J150000D01*
G01*
G37*
G36*
G01*
X90149000Y-116482000D02*
X90149000Y-116182000D01*
G75*
G02*
X90299000Y-116032000I150000J0D01*
G01*
X91949000Y-116032000D01*
G75*
G02*
X92099000Y-116182000I0J-150000D01*
G01*
X92099000Y-116482000D01*
G75*
G02*
X91949000Y-116632000I-150000J0D01*
G01*
X90299000Y-116632000D01*
G75*
G02*
X90149000Y-116482000I0J150000D01*
G01*
G37*
G36*
G01*
X90149000Y-115212000D02*
X90149000Y-114912000D01*
G75*
G02*
X90299000Y-114762000I150000J0D01*
G01*
X91949000Y-114762000D01*
G75*
G02*
X92099000Y-114912000I0J-150000D01*
G01*
X92099000Y-115212000D01*
G75*
G02*
X91949000Y-115362000I-150000J0D01*
G01*
X90299000Y-115362000D01*
G75*
G02*
X90149000Y-115212000I0J150000D01*
G01*
G37*
G36*
G01*
X90149000Y-113942000D02*
X90149000Y-113642000D01*
G75*
G02*
X90299000Y-113492000I150000J0D01*
G01*
X91949000Y-113492000D01*
G75*
G02*
X92099000Y-113642000I0J-150000D01*
G01*
X92099000Y-113942000D01*
G75*
G02*
X91949000Y-114092000I-150000J0D01*
G01*
X90299000Y-114092000D01*
G75*
G02*
X90149000Y-113942000I0J150000D01*
G01*
G37*
G36*
G01*
X90149000Y-112672000D02*
X90149000Y-112372000D01*
G75*
G02*
X90299000Y-112222000I150000J0D01*
G01*
X91949000Y-112222000D01*
G75*
G02*
X92099000Y-112372000I0J-150000D01*
G01*
X92099000Y-112672000D01*
G75*
G02*
X91949000Y-112822000I-150000J0D01*
G01*
X90299000Y-112822000D01*
G75*
G02*
X90149000Y-112672000I0J150000D01*
G01*
G37*
G36*
G01*
X90149000Y-111402000D02*
X90149000Y-111102000D01*
G75*
G02*
X90299000Y-110952000I150000J0D01*
G01*
X91949000Y-110952000D01*
G75*
G02*
X92099000Y-111102000I0J-150000D01*
G01*
X92099000Y-111402000D01*
G75*
G02*
X91949000Y-111552000I-150000J0D01*
G01*
X90299000Y-111552000D01*
G75*
G02*
X90149000Y-111402000I0J150000D01*
G01*
G37*
%TD*%
%TO.C,U3*%
G36*
G01*
X108126000Y-118006000D02*
X108126000Y-117706000D01*
G75*
G02*
X108276000Y-117556000I150000J0D01*
G01*
X109726000Y-117556000D01*
G75*
G02*
X109876000Y-117706000I0J-150000D01*
G01*
X109876000Y-118006000D01*
G75*
G02*
X109726000Y-118156000I-150000J0D01*
G01*
X108276000Y-118156000D01*
G75*
G02*
X108126000Y-118006000I0J150000D01*
G01*
G37*
G36*
G01*
X108126000Y-119276000D02*
X108126000Y-118976000D01*
G75*
G02*
X108276000Y-118826000I150000J0D01*
G01*
X109726000Y-118826000D01*
G75*
G02*
X109876000Y-118976000I0J-150000D01*
G01*
X109876000Y-119276000D01*
G75*
G02*
X109726000Y-119426000I-150000J0D01*
G01*
X108276000Y-119426000D01*
G75*
G02*
X108126000Y-119276000I0J150000D01*
G01*
G37*
G36*
G01*
X108126000Y-120546000D02*
X108126000Y-120246000D01*
G75*
G02*
X108276000Y-120096000I150000J0D01*
G01*
X109726000Y-120096000D01*
G75*
G02*
X109876000Y-120246000I0J-150000D01*
G01*
X109876000Y-120546000D01*
G75*
G02*
X109726000Y-120696000I-150000J0D01*
G01*
X108276000Y-120696000D01*
G75*
G02*
X108126000Y-120546000I0J150000D01*
G01*
G37*
G36*
G01*
X108126000Y-121816000D02*
X108126000Y-121516000D01*
G75*
G02*
X108276000Y-121366000I150000J0D01*
G01*
X109726000Y-121366000D01*
G75*
G02*
X109876000Y-121516000I0J-150000D01*
G01*
X109876000Y-121816000D01*
G75*
G02*
X109726000Y-121966000I-150000J0D01*
G01*
X108276000Y-121966000D01*
G75*
G02*
X108126000Y-121816000I0J150000D01*
G01*
G37*
G36*
G01*
X102976000Y-121816000D02*
X102976000Y-121516000D01*
G75*
G02*
X103126000Y-121366000I150000J0D01*
G01*
X104576000Y-121366000D01*
G75*
G02*
X104726000Y-121516000I0J-150000D01*
G01*
X104726000Y-121816000D01*
G75*
G02*
X104576000Y-121966000I-150000J0D01*
G01*
X103126000Y-121966000D01*
G75*
G02*
X102976000Y-121816000I0J150000D01*
G01*
G37*
G36*
G01*
X102976000Y-120546000D02*
X102976000Y-120246000D01*
G75*
G02*
X103126000Y-120096000I150000J0D01*
G01*
X104576000Y-120096000D01*
G75*
G02*
X104726000Y-120246000I0J-150000D01*
G01*
X104726000Y-120546000D01*
G75*
G02*
X104576000Y-120696000I-150000J0D01*
G01*
X103126000Y-120696000D01*
G75*
G02*
X102976000Y-120546000I0J150000D01*
G01*
G37*
G36*
G01*
X102976000Y-119276000D02*
X102976000Y-118976000D01*
G75*
G02*
X103126000Y-118826000I150000J0D01*
G01*
X104576000Y-118826000D01*
G75*
G02*
X104726000Y-118976000I0J-150000D01*
G01*
X104726000Y-119276000D01*
G75*
G02*
X104576000Y-119426000I-150000J0D01*
G01*
X103126000Y-119426000D01*
G75*
G02*
X102976000Y-119276000I0J150000D01*
G01*
G37*
G36*
G01*
X102976000Y-118006000D02*
X102976000Y-117706000D01*
G75*
G02*
X103126000Y-117556000I150000J0D01*
G01*
X104576000Y-117556000D01*
G75*
G02*
X104726000Y-117706000I0J-150000D01*
G01*
X104726000Y-118006000D01*
G75*
G02*
X104576000Y-118156000I-150000J0D01*
G01*
X103126000Y-118156000D01*
G75*
G02*
X102976000Y-118006000I0J150000D01*
G01*
G37*
%TD*%
D19*
%TO.C,U2*%
X97282000Y-92964000D03*
D20*
X100252000Y-90039000D03*
X100252000Y-90689000D03*
X100252000Y-91339000D03*
X100252000Y-91989000D03*
X100252000Y-92639000D03*
X100252000Y-93289000D03*
X100252000Y-93939000D03*
X100252000Y-94589000D03*
X100252000Y-95239000D03*
X100252000Y-95889000D03*
X94312000Y-95889000D03*
X94312000Y-95239000D03*
X94312000Y-94589000D03*
X94312000Y-93939000D03*
X94312000Y-93289000D03*
X94312000Y-92639000D03*
X94312000Y-91989000D03*
X94312000Y-91339000D03*
X94312000Y-90689000D03*
X94312000Y-90039000D03*
%TD*%
D21*
%TO.C,TP10*%
X115697000Y-120523000D03*
%TD*%
%TO.C,TP9*%
X84836000Y-95250000D03*
%TD*%
%TO.C,TP8*%
X124206000Y-111252000D03*
%TD*%
%TO.C,TP7*%
X112776000Y-68326000D03*
%TD*%
%TO.C,TP6*%
X86614000Y-99187000D03*
%TD*%
%TO.C,TP5*%
X69342000Y-69342000D03*
%TD*%
%TO.C,TP4*%
X78740000Y-99822000D03*
%TD*%
%TO.C,TP2*%
X65532000Y-98298000D03*
%TD*%
%TO.C,TP3*%
X74168000Y-110744000D03*
%TD*%
%TO.C,TP1*%
X62230000Y-83312000D03*
%TD*%
%TO.C,R13*%
G36*
G01*
X124958002Y-115178000D02*
X123707998Y-115178000D01*
G75*
G02*
X123458000Y-114928002I0J249998D01*
G01*
X123458000Y-114302998D01*
G75*
G02*
X123707998Y-114053000I249998J0D01*
G01*
X124958002Y-114053000D01*
G75*
G02*
X125208000Y-114302998I0J-249998D01*
G01*
X125208000Y-114928002D01*
G75*
G02*
X124958002Y-115178000I-249998J0D01*
G01*
G37*
G36*
G01*
X124958002Y-118103000D02*
X123707998Y-118103000D01*
G75*
G02*
X123458000Y-117853002I0J249998D01*
G01*
X123458000Y-117227998D01*
G75*
G02*
X123707998Y-116978000I249998J0D01*
G01*
X124958002Y-116978000D01*
G75*
G02*
X125208000Y-117227998I0J-249998D01*
G01*
X125208000Y-117853002D01*
G75*
G02*
X124958002Y-118103000I-249998J0D01*
G01*
G37*
%TD*%
%TO.C,R10*%
G36*
G01*
X100768998Y-121939000D02*
X101669002Y-121939000D01*
G75*
G02*
X101919000Y-122188998I0J-249998D01*
G01*
X101919000Y-122714002D01*
G75*
G02*
X101669002Y-122964000I-249998J0D01*
G01*
X100768998Y-122964000D01*
G75*
G02*
X100519000Y-122714002I0J249998D01*
G01*
X100519000Y-122188998D01*
G75*
G02*
X100768998Y-121939000I249998J0D01*
G01*
G37*
G36*
G01*
X100768998Y-120114000D02*
X101669002Y-120114000D01*
G75*
G02*
X101919000Y-120363998I0J-249998D01*
G01*
X101919000Y-120889002D01*
G75*
G02*
X101669002Y-121139000I-249998J0D01*
G01*
X100768998Y-121139000D01*
G75*
G02*
X100519000Y-120889002I0J249998D01*
G01*
X100519000Y-120363998D01*
G75*
G02*
X100768998Y-120114000I249998J0D01*
G01*
G37*
%TD*%
%TO.C,R9*%
G36*
G01*
X100768998Y-118256000D02*
X101669002Y-118256000D01*
G75*
G02*
X101919000Y-118505998I0J-249998D01*
G01*
X101919000Y-119031002D01*
G75*
G02*
X101669002Y-119281000I-249998J0D01*
G01*
X100768998Y-119281000D01*
G75*
G02*
X100519000Y-119031002I0J249998D01*
G01*
X100519000Y-118505998D01*
G75*
G02*
X100768998Y-118256000I249998J0D01*
G01*
G37*
G36*
G01*
X100768998Y-116431000D02*
X101669002Y-116431000D01*
G75*
G02*
X101919000Y-116680998I0J-249998D01*
G01*
X101919000Y-117206002D01*
G75*
G02*
X101669002Y-117456000I-249998J0D01*
G01*
X100768998Y-117456000D01*
G75*
G02*
X100519000Y-117206002I0J249998D01*
G01*
X100519000Y-116680998D01*
G75*
G02*
X100768998Y-116431000I249998J0D01*
G01*
G37*
%TD*%
%TO.C,R8*%
G36*
G01*
X112210002Y-118194500D02*
X111309998Y-118194500D01*
G75*
G02*
X111060000Y-117944502I0J249998D01*
G01*
X111060000Y-117419498D01*
G75*
G02*
X111309998Y-117169500I249998J0D01*
G01*
X112210002Y-117169500D01*
G75*
G02*
X112460000Y-117419498I0J-249998D01*
G01*
X112460000Y-117944502D01*
G75*
G02*
X112210002Y-118194500I-249998J0D01*
G01*
G37*
G36*
G01*
X112210002Y-120019500D02*
X111309998Y-120019500D01*
G75*
G02*
X111060000Y-119769502I0J249998D01*
G01*
X111060000Y-119244498D01*
G75*
G02*
X111309998Y-118994500I249998J0D01*
G01*
X112210002Y-118994500D01*
G75*
G02*
X112460000Y-119244498I0J-249998D01*
G01*
X112460000Y-119769502D01*
G75*
G02*
X112210002Y-120019500I-249998J0D01*
G01*
G37*
%TD*%
%TO.C,R12*%
G36*
G01*
X75282999Y-90910500D02*
X78133001Y-90910500D01*
G75*
G02*
X78383000Y-91160499I0J-249999D01*
G01*
X78383000Y-91885501D01*
G75*
G02*
X78133001Y-92135500I-249999J0D01*
G01*
X75282999Y-92135500D01*
G75*
G02*
X75033000Y-91885501I0J249999D01*
G01*
X75033000Y-91160499D01*
G75*
G02*
X75282999Y-90910500I249999J0D01*
G01*
G37*
G36*
G01*
X75282999Y-84985500D02*
X78133001Y-84985500D01*
G75*
G02*
X78383000Y-85235499I0J-249999D01*
G01*
X78383000Y-85960501D01*
G75*
G02*
X78133001Y-86210500I-249999J0D01*
G01*
X75282999Y-86210500D01*
G75*
G02*
X75033000Y-85960501I0J249999D01*
G01*
X75033000Y-85235499D01*
G75*
G02*
X75282999Y-84985500I249999J0D01*
G01*
G37*
%TD*%
%TO.C,R7*%
G36*
G01*
X112210002Y-121774000D02*
X111309998Y-121774000D01*
G75*
G02*
X111060000Y-121524002I0J249998D01*
G01*
X111060000Y-120998998D01*
G75*
G02*
X111309998Y-120749000I249998J0D01*
G01*
X112210002Y-120749000D01*
G75*
G02*
X112460000Y-120998998I0J-249998D01*
G01*
X112460000Y-121524002D01*
G75*
G02*
X112210002Y-121774000I-249998J0D01*
G01*
G37*
G36*
G01*
X112210002Y-123599000D02*
X111309998Y-123599000D01*
G75*
G02*
X111060000Y-123349002I0J249998D01*
G01*
X111060000Y-122823998D01*
G75*
G02*
X111309998Y-122574000I249998J0D01*
G01*
X112210002Y-122574000D01*
G75*
G02*
X112460000Y-122823998I0J-249998D01*
G01*
X112460000Y-123349002D01*
G75*
G02*
X112210002Y-123599000I-249998J0D01*
G01*
G37*
%TD*%
%TO.C,R4*%
G36*
G01*
X90481998Y-90062000D02*
X91382002Y-90062000D01*
G75*
G02*
X91632000Y-90311998I0J-249998D01*
G01*
X91632000Y-90837002D01*
G75*
G02*
X91382002Y-91087000I-249998J0D01*
G01*
X90481998Y-91087000D01*
G75*
G02*
X90232000Y-90837002I0J249998D01*
G01*
X90232000Y-90311998D01*
G75*
G02*
X90481998Y-90062000I249998J0D01*
G01*
G37*
G36*
G01*
X90481998Y-88237000D02*
X91382002Y-88237000D01*
G75*
G02*
X91632000Y-88486998I0J-249998D01*
G01*
X91632000Y-89012002D01*
G75*
G02*
X91382002Y-89262000I-249998J0D01*
G01*
X90481998Y-89262000D01*
G75*
G02*
X90232000Y-89012002I0J249998D01*
G01*
X90232000Y-88486998D01*
G75*
G02*
X90481998Y-88237000I249998J0D01*
G01*
G37*
%TD*%
%TO.C,R3*%
G36*
G01*
X88195998Y-90824000D02*
X89096002Y-90824000D01*
G75*
G02*
X89346000Y-91073998I0J-249998D01*
G01*
X89346000Y-91599002D01*
G75*
G02*
X89096002Y-91849000I-249998J0D01*
G01*
X88195998Y-91849000D01*
G75*
G02*
X87946000Y-91599002I0J249998D01*
G01*
X87946000Y-91073998D01*
G75*
G02*
X88195998Y-90824000I249998J0D01*
G01*
G37*
G36*
G01*
X88195998Y-88999000D02*
X89096002Y-88999000D01*
G75*
G02*
X89346000Y-89248998I0J-249998D01*
G01*
X89346000Y-89774002D01*
G75*
G02*
X89096002Y-90024000I-249998J0D01*
G01*
X88195998Y-90024000D01*
G75*
G02*
X87946000Y-89774002I0J249998D01*
G01*
X87946000Y-89248998D01*
G75*
G02*
X88195998Y-88999000I249998J0D01*
G01*
G37*
%TD*%
%TO.C,R2*%
G36*
G01*
X84894998Y-90824000D02*
X85795002Y-90824000D01*
G75*
G02*
X86045000Y-91073998I0J-249998D01*
G01*
X86045000Y-91599002D01*
G75*
G02*
X85795002Y-91849000I-249998J0D01*
G01*
X84894998Y-91849000D01*
G75*
G02*
X84645000Y-91599002I0J249998D01*
G01*
X84645000Y-91073998D01*
G75*
G02*
X84894998Y-90824000I249998J0D01*
G01*
G37*
G36*
G01*
X84894998Y-88999000D02*
X85795002Y-88999000D01*
G75*
G02*
X86045000Y-89248998I0J-249998D01*
G01*
X86045000Y-89774002D01*
G75*
G02*
X85795002Y-90024000I-249998J0D01*
G01*
X84894998Y-90024000D01*
G75*
G02*
X84645000Y-89774002I0J249998D01*
G01*
X84645000Y-89248998D01*
G75*
G02*
X84894998Y-88999000I249998J0D01*
G01*
G37*
%TD*%
%TO.C,R1*%
G36*
G01*
X84893998Y-87268000D02*
X85794002Y-87268000D01*
G75*
G02*
X86044000Y-87517998I0J-249998D01*
G01*
X86044000Y-88043002D01*
G75*
G02*
X85794002Y-88293000I-249998J0D01*
G01*
X84893998Y-88293000D01*
G75*
G02*
X84644000Y-88043002I0J249998D01*
G01*
X84644000Y-87517998D01*
G75*
G02*
X84893998Y-87268000I249998J0D01*
G01*
G37*
G36*
G01*
X84893998Y-85443000D02*
X85794002Y-85443000D01*
G75*
G02*
X86044000Y-85692998I0J-249998D01*
G01*
X86044000Y-86218002D01*
G75*
G02*
X85794002Y-86468000I-249998J0D01*
G01*
X84893998Y-86468000D01*
G75*
G02*
X84644000Y-86218002I0J249998D01*
G01*
X84644000Y-85692998D01*
G75*
G02*
X84893998Y-85443000I249998J0D01*
G01*
G37*
%TD*%
D22*
%TO.C,Q2*%
X114300000Y-74494000D03*
D23*
X112395000Y-72389000D03*
X113665000Y-72389000D03*
X114935000Y-72389000D03*
X116205000Y-72389000D03*
D24*
X116205000Y-77854000D03*
X114935000Y-77854000D03*
X113665000Y-77854000D03*
X112395000Y-77854000D03*
%TD*%
D22*
%TO.C,Q1*%
X68834000Y-79938000D03*
D23*
X70739000Y-82043000D03*
X69469000Y-82043000D03*
X68199000Y-82043000D03*
X66929000Y-82043000D03*
D24*
X66929000Y-76578000D03*
X68199000Y-76578000D03*
X69469000Y-76578000D03*
X70739000Y-76578000D03*
%TD*%
D25*
%TO.C,L2*%
X106745000Y-72390000D03*
X88835000Y-72390000D03*
%TD*%
D26*
%TO.C,J5*%
X85758000Y-137922000D03*
%TD*%
%TO.C,J4*%
X124714000Y-137922000D03*
%TD*%
D10*
%TO.C,J3*%
X90932000Y-124079000D03*
X93472000Y-124079000D03*
D11*
X96012000Y-124079000D03*
%TD*%
%TO.C,J1*%
G36*
G01*
X78946000Y-59714000D02*
X78946000Y-62714000D01*
G75*
G02*
X77446000Y-64214000I-1500000J0D01*
G01*
X74446000Y-64214000D01*
G75*
G02*
X72946000Y-62714000I0J1500000D01*
G01*
X72946000Y-59714000D01*
G75*
G02*
X74446000Y-58214000I1500000J0D01*
G01*
X77446000Y-58214000D01*
G75*
G02*
X78946000Y-59714000I0J-1500000D01*
G01*
G37*
D27*
X68746000Y-61214000D03*
%TD*%
D28*
%TO.C,H4*%
X58801000Y-142621000D03*
%TD*%
%TO.C,H3*%
X110363000Y-142748000D03*
%TD*%
%TO.C,H2*%
X130937000Y-57150000D03*
%TD*%
%TO.C,H1*%
X58293000Y-57150000D03*
%TD*%
D29*
%TO.C,D3*%
X124206000Y-83385000D03*
D30*
X121666000Y-74235000D03*
X126746000Y-74235000D03*
%TD*%
D29*
%TO.C,D2*%
X77724000Y-72571000D03*
D30*
X80264000Y-81721000D03*
X75184000Y-81721000D03*
%TD*%
%TO.C,C28*%
G36*
G01*
X59276000Y-136837000D02*
X58326000Y-136837000D01*
G75*
G02*
X58076000Y-136587000I0J250000D01*
G01*
X58076000Y-136087000D01*
G75*
G02*
X58326000Y-135837000I250000J0D01*
G01*
X59276000Y-135837000D01*
G75*
G02*
X59526000Y-136087000I0J-250000D01*
G01*
X59526000Y-136587000D01*
G75*
G02*
X59276000Y-136837000I-250000J0D01*
G01*
G37*
G36*
G01*
X59276000Y-138737000D02*
X58326000Y-138737000D01*
G75*
G02*
X58076000Y-138487000I0J250000D01*
G01*
X58076000Y-137987000D01*
G75*
G02*
X58326000Y-137737000I250000J0D01*
G01*
X59276000Y-137737000D01*
G75*
G02*
X59526000Y-137987000I0J-250000D01*
G01*
X59526000Y-138487000D01*
G75*
G02*
X59276000Y-138737000I-250000J0D01*
G01*
G37*
%TD*%
%TO.C,C27*%
G36*
G01*
X110838000Y-136964000D02*
X109888000Y-136964000D01*
G75*
G02*
X109638000Y-136714000I0J250000D01*
G01*
X109638000Y-136214000D01*
G75*
G02*
X109888000Y-135964000I250000J0D01*
G01*
X110838000Y-135964000D01*
G75*
G02*
X111088000Y-136214000I0J-250000D01*
G01*
X111088000Y-136714000D01*
G75*
G02*
X110838000Y-136964000I-250000J0D01*
G01*
G37*
G36*
G01*
X110838000Y-138864000D02*
X109888000Y-138864000D01*
G75*
G02*
X109638000Y-138614000I0J250000D01*
G01*
X109638000Y-138114000D01*
G75*
G02*
X109888000Y-137864000I250000J0D01*
G01*
X110838000Y-137864000D01*
G75*
G02*
X111088000Y-138114000I0J-250000D01*
G01*
X111088000Y-138614000D01*
G75*
G02*
X110838000Y-138864000I-250000J0D01*
G01*
G37*
%TD*%
%TO.C,C26*%
G36*
G01*
X130462000Y-63061000D02*
X131412000Y-63061000D01*
G75*
G02*
X131662000Y-63311000I0J-250000D01*
G01*
X131662000Y-63811000D01*
G75*
G02*
X131412000Y-64061000I-250000J0D01*
G01*
X130462000Y-64061000D01*
G75*
G02*
X130212000Y-63811000I0J250000D01*
G01*
X130212000Y-63311000D01*
G75*
G02*
X130462000Y-63061000I250000J0D01*
G01*
G37*
G36*
G01*
X130462000Y-61161000D02*
X131412000Y-61161000D01*
G75*
G02*
X131662000Y-61411000I0J-250000D01*
G01*
X131662000Y-61911000D01*
G75*
G02*
X131412000Y-62161000I-250000J0D01*
G01*
X130462000Y-62161000D01*
G75*
G02*
X130212000Y-61911000I0J250000D01*
G01*
X130212000Y-61411000D01*
G75*
G02*
X130462000Y-61161000I250000J0D01*
G01*
G37*
%TD*%
%TO.C,C25*%
G36*
G01*
X133129000Y-116528000D02*
X134079000Y-116528000D01*
G75*
G02*
X134329000Y-116778000I0J-250000D01*
G01*
X134329000Y-117278000D01*
G75*
G02*
X134079000Y-117528000I-250000J0D01*
G01*
X133129000Y-117528000D01*
G75*
G02*
X132879000Y-117278000I0J250000D01*
G01*
X132879000Y-116778000D01*
G75*
G02*
X133129000Y-116528000I250000J0D01*
G01*
G37*
G36*
G01*
X133129000Y-114628000D02*
X134079000Y-114628000D01*
G75*
G02*
X134329000Y-114878000I0J-250000D01*
G01*
X134329000Y-115378000D01*
G75*
G02*
X134079000Y-115628000I-250000J0D01*
G01*
X133129000Y-115628000D01*
G75*
G02*
X132879000Y-115378000I0J250000D01*
G01*
X132879000Y-114878000D01*
G75*
G02*
X133129000Y-114628000I250000J0D01*
G01*
G37*
%TD*%
%TO.C,C19*%
G36*
G01*
X103828000Y-107790000D02*
X103828000Y-106840000D01*
G75*
G02*
X104078000Y-106590000I250000J0D01*
G01*
X104578000Y-106590000D01*
G75*
G02*
X104828000Y-106840000I0J-250000D01*
G01*
X104828000Y-107790000D01*
G75*
G02*
X104578000Y-108040000I-250000J0D01*
G01*
X104078000Y-108040000D01*
G75*
G02*
X103828000Y-107790000I0J250000D01*
G01*
G37*
G36*
G01*
X101928000Y-107790000D02*
X101928000Y-106840000D01*
G75*
G02*
X102178000Y-106590000I250000J0D01*
G01*
X102678000Y-106590000D01*
G75*
G02*
X102928000Y-106840000I0J-250000D01*
G01*
X102928000Y-107790000D01*
G75*
G02*
X102678000Y-108040000I-250000J0D01*
G01*
X102178000Y-108040000D01*
G75*
G02*
X101928000Y-107790000I0J250000D01*
G01*
G37*
%TD*%
D17*
%TO.C,C23*%
X132762000Y-106426000D03*
D18*
X127762000Y-106426000D03*
%TD*%
%TO.C,C22*%
G36*
G01*
X97036000Y-98773000D02*
X97036000Y-97823000D01*
G75*
G02*
X97286000Y-97573000I250000J0D01*
G01*
X97786000Y-97573000D01*
G75*
G02*
X98036000Y-97823000I0J-250000D01*
G01*
X98036000Y-98773000D01*
G75*
G02*
X97786000Y-99023000I-250000J0D01*
G01*
X97286000Y-99023000D01*
G75*
G02*
X97036000Y-98773000I0J250000D01*
G01*
G37*
G36*
G01*
X95136000Y-98773000D02*
X95136000Y-97823000D01*
G75*
G02*
X95386000Y-97573000I250000J0D01*
G01*
X95886000Y-97573000D01*
G75*
G02*
X96136000Y-97823000I0J-250000D01*
G01*
X96136000Y-98773000D01*
G75*
G02*
X95886000Y-99023000I-250000J0D01*
G01*
X95386000Y-99023000D01*
G75*
G02*
X95136000Y-98773000I0J250000D01*
G01*
G37*
%TD*%
%TO.C,C16*%
G36*
G01*
X103828000Y-110076000D02*
X103828000Y-109126000D01*
G75*
G02*
X104078000Y-108876000I250000J0D01*
G01*
X104578000Y-108876000D01*
G75*
G02*
X104828000Y-109126000I0J-250000D01*
G01*
X104828000Y-110076000D01*
G75*
G02*
X104578000Y-110326000I-250000J0D01*
G01*
X104078000Y-110326000D01*
G75*
G02*
X103828000Y-110076000I0J250000D01*
G01*
G37*
G36*
G01*
X101928000Y-110076000D02*
X101928000Y-109126000D01*
G75*
G02*
X102178000Y-108876000I250000J0D01*
G01*
X102678000Y-108876000D01*
G75*
G02*
X102928000Y-109126000I0J-250000D01*
G01*
X102928000Y-110076000D01*
G75*
G02*
X102678000Y-110326000I-250000J0D01*
G01*
X102178000Y-110326000D01*
G75*
G02*
X101928000Y-110076000I0J250000D01*
G01*
G37*
%TD*%
D17*
%TO.C,C21*%
X132762000Y-95250000D03*
D18*
X127762000Y-95250000D03*
%TD*%
D17*
%TO.C,C18*%
X115650000Y-106426000D03*
D18*
X120650000Y-106426000D03*
%TD*%
%TO.C,C12*%
G36*
G01*
X94049000Y-107282000D02*
X94049000Y-106332000D01*
G75*
G02*
X94299000Y-106082000I250000J0D01*
G01*
X94799000Y-106082000D01*
G75*
G02*
X95049000Y-106332000I0J-250000D01*
G01*
X95049000Y-107282000D01*
G75*
G02*
X94799000Y-107532000I-250000J0D01*
G01*
X94299000Y-107532000D01*
G75*
G02*
X94049000Y-107282000I0J250000D01*
G01*
G37*
G36*
G01*
X92149000Y-107282000D02*
X92149000Y-106332000D01*
G75*
G02*
X92399000Y-106082000I250000J0D01*
G01*
X92899000Y-106082000D01*
G75*
G02*
X93149000Y-106332000I0J-250000D01*
G01*
X93149000Y-107282000D01*
G75*
G02*
X92899000Y-107532000I-250000J0D01*
G01*
X92399000Y-107532000D01*
G75*
G02*
X92149000Y-107282000I0J250000D01*
G01*
G37*
%TD*%
%TO.C,C14*%
G36*
G01*
X104361000Y-89974000D02*
X103411000Y-89974000D01*
G75*
G02*
X103161000Y-89724000I0J250000D01*
G01*
X103161000Y-89224000D01*
G75*
G02*
X103411000Y-88974000I250000J0D01*
G01*
X104361000Y-88974000D01*
G75*
G02*
X104611000Y-89224000I0J-250000D01*
G01*
X104611000Y-89724000D01*
G75*
G02*
X104361000Y-89974000I-250000J0D01*
G01*
G37*
G36*
G01*
X104361000Y-91874000D02*
X103411000Y-91874000D01*
G75*
G02*
X103161000Y-91624000I0J250000D01*
G01*
X103161000Y-91124000D01*
G75*
G02*
X103411000Y-90874000I250000J0D01*
G01*
X104361000Y-90874000D01*
G75*
G02*
X104611000Y-91124000I0J-250000D01*
G01*
X104611000Y-91624000D01*
G75*
G02*
X104361000Y-91874000I-250000J0D01*
G01*
G37*
%TD*%
%TO.C,C11*%
G36*
G01*
X94049000Y-109568000D02*
X94049000Y-108618000D01*
G75*
G02*
X94299000Y-108368000I250000J0D01*
G01*
X94799000Y-108368000D01*
G75*
G02*
X95049000Y-108618000I0J-250000D01*
G01*
X95049000Y-109568000D01*
G75*
G02*
X94799000Y-109818000I-250000J0D01*
G01*
X94299000Y-109818000D01*
G75*
G02*
X94049000Y-109568000I0J250000D01*
G01*
G37*
G36*
G01*
X92149000Y-109568000D02*
X92149000Y-108618000D01*
G75*
G02*
X92399000Y-108368000I250000J0D01*
G01*
X92899000Y-108368000D01*
G75*
G02*
X93149000Y-108618000I0J-250000D01*
G01*
X93149000Y-109568000D01*
G75*
G02*
X92899000Y-109818000I-250000J0D01*
G01*
X92399000Y-109818000D01*
G75*
G02*
X92149000Y-109568000I0J250000D01*
G01*
G37*
%TD*%
%TO.C,C10*%
G36*
G01*
X103411000Y-94430000D02*
X104361000Y-94430000D01*
G75*
G02*
X104611000Y-94680000I0J-250000D01*
G01*
X104611000Y-95180000D01*
G75*
G02*
X104361000Y-95430000I-250000J0D01*
G01*
X103411000Y-95430000D01*
G75*
G02*
X103161000Y-95180000I0J250000D01*
G01*
X103161000Y-94680000D01*
G75*
G02*
X103411000Y-94430000I250000J0D01*
G01*
G37*
G36*
G01*
X103411000Y-92530000D02*
X104361000Y-92530000D01*
G75*
G02*
X104611000Y-92780000I0J-250000D01*
G01*
X104611000Y-93280000D01*
G75*
G02*
X104361000Y-93530000I-250000J0D01*
G01*
X103411000Y-93530000D01*
G75*
G02*
X103161000Y-93280000I0J250000D01*
G01*
X103161000Y-92780000D01*
G75*
G02*
X103411000Y-92530000I250000J0D01*
G01*
G37*
%TD*%
%TO.C,C9*%
G36*
G01*
X94709000Y-86230000D02*
X93759000Y-86230000D01*
G75*
G02*
X93509000Y-85980000I0J250000D01*
G01*
X93509000Y-85480000D01*
G75*
G02*
X93759000Y-85230000I250000J0D01*
G01*
X94709000Y-85230000D01*
G75*
G02*
X94959000Y-85480000I0J-250000D01*
G01*
X94959000Y-85980000D01*
G75*
G02*
X94709000Y-86230000I-250000J0D01*
G01*
G37*
G36*
G01*
X94709000Y-88130000D02*
X93759000Y-88130000D01*
G75*
G02*
X93509000Y-87880000I0J250000D01*
G01*
X93509000Y-87380000D01*
G75*
G02*
X93759000Y-87130000I250000J0D01*
G01*
X94709000Y-87130000D01*
G75*
G02*
X94959000Y-87380000I0J-250000D01*
G01*
X94959000Y-87880000D01*
G75*
G02*
X94709000Y-88130000I-250000J0D01*
G01*
G37*
%TD*%
%TO.C,C24*%
G36*
G01*
X57818000Y-62934000D02*
X58768000Y-62934000D01*
G75*
G02*
X59018000Y-63184000I0J-250000D01*
G01*
X59018000Y-63684000D01*
G75*
G02*
X58768000Y-63934000I-250000J0D01*
G01*
X57818000Y-63934000D01*
G75*
G02*
X57568000Y-63684000I0J250000D01*
G01*
X57568000Y-63184000D01*
G75*
G02*
X57818000Y-62934000I250000J0D01*
G01*
G37*
G36*
G01*
X57818000Y-61034000D02*
X58768000Y-61034000D01*
G75*
G02*
X59018000Y-61284000I0J-250000D01*
G01*
X59018000Y-61784000D01*
G75*
G02*
X58768000Y-62034000I-250000J0D01*
G01*
X57818000Y-62034000D01*
G75*
G02*
X57568000Y-61784000I0J250000D01*
G01*
X57568000Y-61284000D01*
G75*
G02*
X57818000Y-61034000I250000J0D01*
G01*
G37*
%TD*%
D31*
X125603000Y-114427000D02*
X122809000Y-114427000D01*
X122809000Y-88265000D01*
X125603000Y-88265000D01*
X125603000Y-114427000D01*
D32*
G36*
X125603000Y-114427000D02*
G01*
X122809000Y-114427000D01*
X122809000Y-88265000D01*
X125603000Y-88265000D01*
X125603000Y-114427000D01*
G37*
D31*
X67703792Y-61777564D02*
X68807911Y-64108483D01*
X64934197Y-67982197D01*
X64918403Y-68001443D01*
X64906667Y-68023399D01*
X64899440Y-68047224D01*
X64897000Y-68072000D01*
X64897000Y-85979000D01*
X64899440Y-86003776D01*
X64906667Y-86027601D01*
X64918403Y-86049557D01*
X64934197Y-86068803D01*
X64953443Y-86084597D01*
X64975399Y-86096333D01*
X64999224Y-86103560D01*
X65024000Y-86106000D01*
X66294000Y-86106000D01*
X66318776Y-86103560D01*
X66342601Y-86096333D01*
X66364557Y-86084597D01*
X66383803Y-86068803D01*
X66600606Y-85852000D01*
X68326000Y-85852000D01*
X68326000Y-87054032D01*
X66477553Y-88286330D01*
X66458291Y-88302104D01*
X66442477Y-88321332D01*
X66430718Y-88343276D01*
X66423466Y-88367093D01*
X66421000Y-88392000D01*
X66421000Y-94869000D01*
X62536606Y-94869000D01*
X61595000Y-93927394D01*
X61595000Y-64314606D01*
X66513209Y-59396397D01*
X67703792Y-61777564D01*
D32*
G36*
X67703792Y-61777564D02*
G01*
X68807911Y-64108483D01*
X64934197Y-67982197D01*
X64918403Y-68001443D01*
X64906667Y-68023399D01*
X64899440Y-68047224D01*
X64897000Y-68072000D01*
X64897000Y-85979000D01*
X64899440Y-86003776D01*
X64906667Y-86027601D01*
X64918403Y-86049557D01*
X64934197Y-86068803D01*
X64953443Y-86084597D01*
X64975399Y-86096333D01*
X64999224Y-86103560D01*
X65024000Y-86106000D01*
X66294000Y-86106000D01*
X66318776Y-86103560D01*
X66342601Y-86096333D01*
X66364557Y-86084597D01*
X66383803Y-86068803D01*
X66600606Y-85852000D01*
X68326000Y-85852000D01*
X68326000Y-87054032D01*
X66477553Y-88286330D01*
X66458291Y-88302104D01*
X66442477Y-88321332D01*
X66430718Y-88343276D01*
X66423466Y-88367093D01*
X66421000Y-88392000D01*
X66421000Y-94869000D01*
X62536606Y-94869000D01*
X61595000Y-93927394D01*
X61595000Y-64314606D01*
X66513209Y-59396397D01*
X67703792Y-61777564D01*
G37*
D31*
X125857000Y-143129000D02*
X122809000Y-143129000D01*
X122809000Y-117729000D01*
X125857000Y-117729000D01*
X125857000Y-143129000D01*
D32*
G36*
X125857000Y-143129000D02*
G01*
X122809000Y-143129000D01*
X122809000Y-117729000D01*
X125857000Y-117729000D01*
X125857000Y-143129000D01*
G37*
M02*
